<?xml version="1.0" standalone="no"?>
<!DOCTYPE svg PUBLIC "-//W3C//DTD SVG 20010904//EN"
 "http://www.w3.org/TR/2001/REC-SVG-20010904/DTD/svg10.dtd">
<svg version="1.0" xmlns="http://www.w3.org/2000/svg"
 width="700.000000pt" height="700.000000pt" viewBox="0 0 700.000000 700.000000"
 preserveAspectRatio="xMidYMid meet">
<metadata>
Created by potrace 1.11, written by Peter Selinger 2001-2013
</metadata>
<g transform="translate(0.000000,700.000000) scale(0.100000,-0.100000)"
fill="#000000" stroke="none">
<path d="M3400 6993 c-144 -25 -308 -127 -392 -243 -71 -98 -109 -208 -113
-330 -7 -178 49 -324 170 -446 38 -39 83 -80 100 -91 l30 -21 0 -352 c0 -193
-2 -355 -5 -359 -3 -5 -41 -16 -85 -26 -152 -33 -332 -108 -488 -203 l-67 -41
-254 254 -253 254 12 65 c35 184 -42 406 -184 534 -89 80 -208 139 -316 157
-45 7 -167 7 -204 0 -222 -43 -404 -201 -472 -410 -26 -83 -29 -99 -30 -185
-1 -173 67 -331 194 -449 58 -55 67 -60 142 -99 110 -57 241 -78 363 -58 l66
11 254 -253 c246 -246 253 -254 238 -275 -47 -67 -111 -191 -169 -327 -25 -57
-79 -250 -81 -285 -1 -6 -126 -10 -356 -10 -318 0 -356 2 -370 17 -8 9 -35 41
-60 71 -140 169 -370 247 -600 201 -59 -12 -177 -70 -240 -120 -102 -80 -185
-211 -215 -341 -14 -58 -14 -207 0 -268 10 -45 56 -158 71 -176 8 -8 14 -19
14 -23 0 -9 55 -72 104 -117 21 -20 66 -53 100 -73 264 -157 608 -86 794 164
l41 56 354 -1 c196 0 358 -2 360 -5 3 -3 8 -18 10 -35 3 -16 9 -41 12 -55 3
-14 8 -35 11 -48 18 -89 120 -319 188 -427 18 -27 35 -55 39 -62 8 -14 -500
-526 -513 -518 -28 17 -157 24 -235 12 -244 -37 -445 -222 -501 -463 -63 -271
65 -547 315 -678 89 -46 171 -66 277 -66 109 1 155 11 251 55 252 116 382 358
349 647 l-7 66 250 252 251 252 64 -41 c158 -99 398 -196 536 -216 l45 -7 0
-358 0 -358 -48 -37 c-110 -84 -179 -179 -224 -307 -42 -118 -38 -291 8 -403
7 -17 13 -33 13 -36 2 -15 79 -130 108 -161 123 -132 289 -200 468 -194 478
18 748 544 484 942 -42 63 -102 125 -156 161 -20 14 -38 30 -40 36 -2 7 -4
169 -4 361 l1 349 92 23 c171 42 345 114 478 198 28 18 56 35 62 40 8 4 101
-82 268 -249 247 -248 254 -256 244 -283 -6 -15 -11 -67 -11 -117 -1 -287 184
-528 461 -600 60 -15 198 -21 251 -10 222 45 409 209 473 415 23 77 28 105 28
185 0 283 -186 520 -463 591 -72 19 -205 22 -260 6 l-38 -10 -255 255 c-243
243 -255 256 -242 277 60 91 108 183 170 326 20 46 57 171 71 240 l12 55 359
0 360 1 20 -32 c69 -109 205 -209 340 -250 85 -26 258 -24 342 3 190 62 335
206 404 399 30 84 34 236 10 330 -67 260 -295 448 -558 460 -192 9 -375 -70
-493 -213 -25 -30 -52 -62 -60 -72 -14 -15 -50 -16 -360 -15 -190 0 -350 -3
-355 -7 -6 -5 -11 -1 -11 9 -2 42 -38 174 -74 271 -33 91 -93 213 -150 306
l-40 65 255 254 254 254 53 -12 c154 -35 350 17 486 129 257 212 298 585 93
845 -43 55 -45 57 -101 102 -73 58 -171 103 -275 124 -37 8 -170 5 -221 -5
-165 -32 -319 -142 -406 -291 -67 -115 -92 -251 -75 -401 l8 -66 -251 -251
-252 -252 -55 36 c-141 90 -305 160 -478 204 l-110 28 0 359 -1 358 32 20 c90
57 185 174 228 279 119 299 -10 632 -299 771 -50 24 -117 47 -150 53 -63 10
-173 13 -215 5z"/>
</g>
</svg>
